<?xml version="1.0" encoding="UTF-8" standalone="no"?>
<!-- Created with Inkscape (http://www.inkscape.org/) -->

<svg
   width="107.95937mm"
   height="148.01257mm"
   viewBox="0 0 107.95936 148.01257"
   version="1.1"
   id="svg5"
   inkscape:version="1.1 (c68e22c387, 2021-05-23)"
   sodipodi:docname="bomb.svg"
   xmlns:inkscape="http://www.inkscape.org/namespaces/inkscape"
   xmlns:sodipodi="http://sodipodi.sourceforge.net/DTD/sodipodi-0.dtd"
   xmlns="http://www.w3.org/2000/svg"
   xmlns:svg="http://www.w3.org/2000/svg">
  <sodipodi:namedview
     id="namedview7"
     pagecolor="#ffffff"
     bordercolor="#666666"
     borderopacity="1.0"
     inkscape:pageshadow="2"
     inkscape:pageopacity="0.0"
     inkscape:pagecheckerboard="0"
     inkscape:document-units="mm"
     showgrid="false"
     inkscape:object-paths="true"
     inkscape:snap-intersection-paths="false"
     inkscape:object-nodes="false"
     inkscape:zoom="0.94237256"
     inkscape:cx="385.72855"
     inkscape:cy="279.61341"
     inkscape:window-width="1920"
     inkscape:window-height="1017"
     inkscape:window-x="1912"
     inkscape:window-y="-8"
     inkscape:window-maximized="1"
     inkscape:current-layer="layer1"
     width="100mm"
     fit-margin-top="0"
     fit-margin-left="0"
     fit-margin-right="0"
     fit-margin-bottom="0" />
  <defs
     id="defs2">
    <inkscape:path-effect
       effect="offset"
       id="path-effect14023"
       is_visible="true"
       lpeversion="1"
       linejoin_type="miter"
       unit="mm"
       offset="4"
       miter_limit="4"
       attempt_force_join="false"
       update_on_knot_move="true" />
    <inkscape:path-effect
       effect="offset"
       id="path-effect13914"
       is_visible="true"
       lpeversion="1"
       linejoin_type="miter"
       unit="mm"
       offset="0"
       miter_limit="4"
       attempt_force_join="false"
       update_on_knot_move="true" />
  </defs>
  <g
     inkscape:label="Layer 1"
     inkscape:groupmode="layer"
     id="layer1"
     transform="translate(1.5200083,1.4881585)">
    <path
       id="path13996"
       style="color:#000000;fill:#ffffff;stroke-width:1.03128;stroke-linecap:round;-inkscape-stroke:none"
       d="m 80.539062,-1.4726562 c -0.816065,0.053315 -1.601135,0.2375652 -2.36914,0.56835932 -0.988403,0.4264593 -1.826707,1.0519467 -2.519531,1.8203125 -2.688603,2.98268118 -2.94858,8.13900088 -1.921875,13.49023438 -1.514989,0.0523 -2.957846,0.419193 -4.082032,1.693359 -4.138097,4.687059 1.816439,12.421282 7.583985,17.615235 1.380154,1.241946 2.842285,2.368592 4.289062,3.382812 0.252207,0.268918 0.502829,0.54041 0.775391,0.789063 l 0.0098,0.0098 0.01172,0.0098 c 1.442462,1.296717 3.122269,2.246144 4.921875,2.857422 -0.02755,0.02936 -0.09371,0.238087 -0.113281,0.253906 0,0 -0.59173,0.526962 -2.978516,0.232422 -7.789276,-0.961236 -14.039034,1.799461 -18.908203,5.566406 -4.26894,-1.600418 -9.013079,-0.01327 -11.230469,4.144532 l -1.269531,2.380859 C 33.195328,50.040965 13.566212,59.450365 4.0625,77.240234 -8.1315049,100.10564 0.3075303,128.55387 22.982422,140.88477 45.657423,153.21593 73.9108,144.64891 86.105469,121.7832 95.602431,103.97279 92.573763,82.246146 79.070312,67.603516 l 1.275391,-2.392578 c 1.355477,-2.541643 1.301172,-5.368325 0.292969,-7.832032 0.519581,-0.02381 0.992577,-0.1663 1.548828,-0.09766 5.777656,0.712993 11.098427,-0.512384 15.013672,-3.677734 3.814158,-3.08363 5.572808,-7.246821 6.388668,-10.748047 0.7515,-3.225019 0.7868,-6.212123 0.67383,-8.56836 2.64486,-4.431785 2.96941,-9.923298 0.47071,-14.507812 l 0.34765,0.865234 c -0.34365,-1.26501 -0.78655,-2.554837 -1.30469,-3.810547 C 101.6305,11.637981 97.33699,5.3492583 92.427734,6.6171875 89.102818,1.8258478 84.826415,-1.7539681 80.539062,-1.4726562 Z"
       inkscape:path-effect="#path-effect14023"
       inkscape:original-d="m 80.800471,2.5196805 a 16.172277,6.9977485 67.168335 0 0 -1.047482,0.2475298 16.172277,6.9977485 67.168335 0 0 -1.132745,0.8273393 16.172277,6.9977485 67.168335 0 0 0.986502,16.7891574 13.384478,4.0557961 42.060647 0 0 -6.962363,-1.637627 13.384478,4.0557961 42.060647 0 0 7.261048,11.996684 13.384478,4.0557961 42.060647 0 0 4.305681,3.396692 10.407155,10.65775 29.709682 0 0 0.77825,0.791684 10.407155,10.65775 29.709682 0 0 7.205763,2.603457 c -0.05614,0.84991 -0.164223,1.718959 -0.35709,2.546615 -0.423192,1.816143 -1.155548,3.20603 -2.19676,4.047815 -1.041211,0.841786 -2.604332,1.508165 -5.985683,1.090891 -7.394011,-0.912458 -13.397007,2.167262 -17.833017,6.180499 l -1.260389,-0.685228 c -2.529795,-1.375735 -5.66303,-0.427069 -7.025411,2.127518 l -2.596223,4.86792 A 42.582616,42.999954 0 0 0 7.5920202,79.123797 42.582616,42.999954 0 0 0 24.893288,137.37088 42.582616,42.999954 0 0 0 82.575557,119.90064 42.582616,42.999954 0 0 0 74.234463,68.170981 l 2.582791,-4.843125 c 1.362382,-2.55459 0.422423,-5.718924 -2.107372,-7.094657 l -1.21542,-0.660942 c 2.5855,-1.738501 5.604383,-2.703548 9.183414,-2.261879 4.920344,0.607196 9.103714,-0.468915 12.008569,-2.817399 2.904854,-2.348482 4.319566,-5.595949 5.00693,-8.545729 0.759305,-3.258511 0.733705,-6.419694 0.559655,-8.601544 A 10.407155,10.65775 29.709682 0 0 101.223,21.693187 9.9348769,3.3299548 67.601868 0 0 100.08095,18.360574 9.9348769,3.3299548 67.601868 0 0 93.218839,10.471649 9.9348769,3.3299548 67.601868 0 0 92.169284,14.182018 16.172277,6.9977485 67.168335 0 0 80.800471,2.5196805 Z" />
    <g
       id="g13770"
       transform="matrix(1.026269,0,0,1.0363271,-28.002052,-35.506151)">
      <path
         style="fill:none;stroke:#4d4d4d;stroke-width:7.865;stroke-linecap:round;stroke-linejoin:miter;stroke-miterlimit:4;stroke-dasharray:none;stroke-opacity:1"
         d="m 84.615566,101.16971 c 0,0 7.52985,-21.346715 23.708254,-19.369602 16.17842,1.97712 12.41778,-17.406903 12.41778,-17.406903"
         id="path1009" />
      <circle
         style="fill:#1a1a1a;stroke-width:5.21499;stroke-linejoin:bevel;paint-order:markers fill stroke"
         id="path846"
         cx="124.47565"
         cy="80.942284"
         r="41.492645"
         transform="rotate(28.303986)" />
      <rect
         style="fill:#1a1a1a;stroke-width:5.21499;stroke-linejoin:bevel;paint-order:markers fill stroke"
         id="rect894"
         width="21.337986"
         height="21.337986"
         x="113.80666"
         y="30.486013"
         ry="5.0537338"
         transform="rotate(28.303986)" />
      <path
         id="path1503"
         style="fill:#ff6600;stroke:none;stroke-width:2.065;stroke-linecap:round;stroke-linejoin:bevel;stroke-miterlimit:4;stroke-dasharray:none;paint-order:markers fill stroke"
         d="m 103.89329,37.730027 a 15.628591,6.8085025 66.874189 0 0 0.96094,16.200774 12.985288,3.9306817 41.726786 0 0 -6.783873,-1.580444 12.985288,3.9306817 41.726786 0 0 7.075183,11.576166 12.985288,3.9306817 41.726786 0 0 4.19557,3.277724 10.107467,10.318039 41.726786 0 0 0.75814,0.764052 10.107467,10.318039 41.726786 0 0 14.41103,-0.97351 10.107467,10.318039 41.726786 0 0 1.40694,-11.800661 9.6003503,3.2400795 67.353712 0 0 -1.11245,-3.215411 9.6003503,3.2400795 67.353712 0 0 -6.68672,-7.612591 9.6003503,3.2400795 67.353712 0 0 -1.02244,3.580533 15.628591,6.8085025 66.874189 0 0 -12.09869,-11.014723 15.628591,6.8085025 66.874189 0 0 -1.10362,0.798052 z" />
      <path
         id="path1859"
         style="fill:#ffff00;stroke:none;stroke-width:1.21692;stroke-linecap:round;stroke-linejoin:bevel;stroke-miterlimit:4;stroke-dasharray:none;paint-order:markers fill stroke"
         d="m 110.71099,50.005145 a 9.210039,4.0122986 66.874189 0 0 0.56629,9.547232 7.6523219,2.3163784 41.726786 0 0 -3.99778,-0.931367 7.6523219,2.3163784 41.726786 0 0 4.16946,6.821898 7.6523219,2.3163784 41.726786 0 0 2.47248,1.931593 5.9564016,6.0804933 41.726786 0 0 0.4468,0.450218 5.9564016,6.0804933 41.726786 0 0 8.49252,-0.57369 5.9564016,6.0804933 41.726786 0 0 0.82912,-6.954207 5.6575542,1.9094017 67.353712 0 0 -0.65557,-1.894872 5.6575542,1.9094017 67.353712 0 0 -3.94053,-4.486151 5.6575542,1.9094017 67.353712 0 0 -0.60253,2.11003 9.210039,4.0122986 66.874189 0 0 -7.1299,-6.490999 9.210039,4.0122986 66.874189 0 0 -0.65037,0.470303 z" />
      <path
         style="fill:none;stroke:#ffffff;stroke-width:5.965;stroke-linecap:round;stroke-linejoin:miter;stroke-miterlimit:4;stroke-dasharray:none;stroke-opacity:1"
         d="m 73.710614,97.919094 c 0,0 -6.351132,-1.825857 -12.873723,1.995926"
         id="path1912"
         sodipodi:nodetypes="cc" />
    </g>
  </g>
</svg>