<?xml version="1.0" encoding="UTF-8" standalone="no"?>
<!-- Created with Inkscape (http://www.inkscape.org/) -->

<svg
   width="72.661713mm"
   height="125.60112mm"
   viewBox="0 0 72.661713 125.60112"
   version="1.1"
   id="svg5"
   inkscape:version="1.1 (c68e22c387, 2021-05-23)"
   sodipodi:docname="GameBoyColor.svg"
   xmlns:inkscape="http://www.inkscape.org/namespaces/inkscape"
   xmlns:sodipodi="http://sodipodi.sourceforge.net/DTD/sodipodi-0.dtd"
   xmlns="http://www.w3.org/2000/svg"
   xmlns:svg="http://www.w3.org/2000/svg">
  <sodipodi:namedview
     id="namedview7"
     pagecolor="#ffffff"
     bordercolor="#666666"
     borderopacity="1.0"
     inkscape:pageshadow="2"
     inkscape:pageopacity="0.0"
     inkscape:pagecheckerboard="0"
     inkscape:document-units="mm"
     showgrid="false"
     inkscape:zoom="0.70710678"
     inkscape:cx="118.08683"
     inkscape:cy="209.30361"
     inkscape:window-width="958"
     inkscape:window-height="1008"
     inkscape:window-x="2033"
     inkscape:window-y="726"
     inkscape:window-maximized="0"
     inkscape:current-layer="layer1" />
  <defs
     id="defs2">
    <inkscape:path-effect
       effect="offset"
       id="path-effect1635"
       is_visible="true"
       lpeversion="1"
       linejoin_type="miter"
       unit="mm"
       offset="-0.2"
       miter_limit="4"
       attempt_force_join="false"
       update_on_knot_move="true" />
    <inkscape:path-effect
       effect="offset"
       id="path-effect5772"
       is_visible="true"
       lpeversion="1"
       linejoin_type="miter"
       unit="mm"
       offset="-0.5"
       miter_limit="4"
       attempt_force_join="false"
       update_on_knot_move="true" />
  </defs>
  <g
     inkscape:label="Layer 1"
     inkscape:groupmode="layer"
     id="layer1"
     transform="translate(-55.786776,-114.35271)">
    <path
       id="rect938"
       style="fill:#0b92a6;fill-opacity:1;stroke:none;stroke-width:2.57655;stroke-linecap:round;stroke-linejoin:round;paint-order:stroke fill markers"
       d="m 58.342691,114.35271 c -1.416119,0 -2.555915,1.14031 -2.555915,2.55643 v 42.12249 c 0,0 0,57.87544 0,76.34676 9.081415,2.52685 18.978414,4.08043 29.147574,4.57544 h 14.366565 c 10.169155,-0.49501 20.066155,-2.04859 29.147575,-4.57544 v -76.34676 c 0,0 0,-27.46147 0,-42.12249 0,-1.41612 -1.1398,-2.55643 -2.55592,-2.55643 z"
       sodipodi:nodetypes="sscccccccss" />
    <path
       id="path1706"
       style="fill:#2e322f;stroke:none;stroke-width:1.80774;stroke-linecap:round;stroke-linejoin:round;paint-order:stroke fill markers;fill-opacity:1"
       d="m 92.03125,118.58193 c -10.667979,0.001 -21.335949,0.007 -32.003906,0.0183 -0.002,18.61835 -0.0059,55.85506 -0.0059,55.85506 0,0 19.402464,1.80706 29.266385,1.78039 7.078529,0.0378 14.154261,0.005 21.165591,-0.5003 4.63548,-0.30739 9.23934,-0.73174 13.78287,-1.27913 -0.0532,-4.8237 -0.0103,-9.64792 -0.0266,-14.47184 -0.004,-13.80274 -0.008,-27.60548 -0.0124,-41.40822 l -32.16602,0.006 z"
       sodipodi:nodetypes="cccccccccc" />
    <path
       id="circle25502"
       style="fill:#087080;fill-opacity:1;stroke:none;stroke-width:2.565;stroke-linecap:round;stroke-linejoin:round;paint-order:stroke fill markers"
       d="m 105.41016,194.0332 c -2.12821,0.0251 -4.164,1.50413 -4.74083,3.56897 -0.737026,2.1945 0.32844,4.80805 2.37973,5.87916 1.97419,1.13675 4.69819,0.67314 6.17601,-1.06732 1.70263,-1.83136 1.70367,-4.94744 -0.0454,-6.75581 -0.95359,-1.04266 -2.35608,-1.65099 -3.76953,-1.625 z" />
    <circle
       style="fill:#b3b3b3;fill-opacity:1;stroke:none;stroke-width:2.565;stroke-linecap:round;stroke-linejoin:round;paint-order:stroke fill markers"
       id="path1738"
       cx="105.46875"
       cy="199.07536"
       r="4.5165439" />
    <path
       id="circle29230"
       style="fill:#087080;fill-opacity:1;stroke:none;stroke-width:2.565;stroke-linecap:round;stroke-linejoin:round;paint-order:stroke fill markers"
       d="m 118,189.62305 c -3.07721,0.19072 -5.40033,3.68916 -4.29674,6.59104 0.90775,2.91755 4.81451,4.36466 7.36315,2.62185 2.47591,-1.50085 3.1575,-5.2933 1.16406,-7.46094 -1.03631,-1.204 -2.64425,-1.87792 -4.23047,-1.75195 z" />
    <circle
       style="fill:#b3b3b3;fill-opacity:1;stroke:none;stroke-width:2.565;stroke-linecap:round;stroke-linejoin:round;paint-order:stroke fill markers"
       id="path1740"
       cx="118.42279"
       cy="194.60844"
       r="4.4669118" />
    <path
       id="rect31616"
       style="fill:#087080;fill-opacity:1;stroke:none;stroke-width:2.69955;stroke-linecap:round;stroke-linejoin:round;paint-order:stroke fill markers"
       d="m 89.277344,216.28906 c -1.780597,0.0579 -3.590394,-0.13923 -5.35103,0.13581 -1.515401,0.51868 -1.20935,3.10209 0.385776,3.25572 1.948184,-0.0348 3.928445,0.17924 5.857832,-0.14739 1.448231,-0.56131 1.131338,-2.92784 -0.345703,-3.21875 -0.181286,-0.0377 -0.362825,-0.0448 -0.546875,-0.0254 z" />
    <rect
       style="fill:#b3b3b3;stroke:none;stroke-width:2.69955;stroke-linecap:round;stroke-linejoin:round;paint-order:stroke fill markers"
       id="rect2117"
       width="7.1945515"
       height="2.3513899"
       x="83.4217"
       y="216.81923"
       ry="1.1756949" />
    <path
       id="rect33768"
       style="fill:#087080;fill-opacity:1;stroke:none;stroke-width:2.69955;stroke-linecap:round;stroke-linejoin:round;paint-order:stroke fill markers"
       d="m 95.419922,216.29297 c -1.351639,-0.0223 -2.174048,1.76962 -1.262754,2.77263 0.8076,1.00184 2.218822,0.52116 3.319394,0.63362 1.148612,-0.0673 2.333258,0.14082 3.458988,-0.11524 1.27772,-0.4274 1.46462,-2.3651 0.29492,-3.02929 -0.98099,-0.51612 -2.149865,-0.15999 -3.210157,-0.26563 -0.86674,0.003 -1.73388,-0.005 -2.600391,0.004 z" />
    <rect
       style="fill:#b3b3b3;stroke:none;stroke-width:2.69955;stroke-linecap:round;stroke-linejoin:round;paint-order:stroke fill markers"
       id="rect2199"
       width="7.1945515"
       height="2.3513899"
       x="94.301262"
       y="216.81923"
       ry="1.1756949" />
    <path
       id="path1631"
       style="fill:#087080;fill-opacity:1;stroke:none;stroke-width:0.388885;stroke-linecap:square;stroke-linejoin:round;stroke-miterlimit:4;stroke-dasharray:none;paint-order:stroke fill markers"
       d="m 69.394531,187.83789 c -0.136865,0.002 -0.27349,0.0265 -0.403348,0.0695 -0.382703,0.1337 -0.686637,0.47628 -0.764763,0.87527 -0.02122,0.10037 -0.03154,0.20291 -0.02915,0.30548 0,1.48625 0,2.9725 0,4.45875 -1.507594,6e-5 -3.015189,-1.2e-4 -4.522782,9e-5 -0.140888,0.004 -0.281657,0.0301 -0.414303,0.078 -0.371482,0.13867 -0.666338,0.4739 -0.742737,0.86471 -0.02107,0.0997 -0.03153,0.20163 -0.02916,0.30357 6.3e-5,0.99577 -1.27e-4,1.99155 9.5e-5,2.98732 0.0044,0.1409 0.03016,0.28168 0.078,0.41434 0.13963,0.37136 0.476001,0.66427 0.866664,0.74076 0.100371,0.0212 0.20291,0.0315 0.305484,0.0292 1.486248,0 2.972496,0 4.458744,0 6.4e-5,1.5076 -1.27e-4,3.01519 9.6e-5,4.52279 0.0044,0.14088 0.03013,0.28165 0.07802,0.4143 0.138672,0.37148 0.473897,0.66634 0.864705,0.74274 0.100357,0.0213 0.202895,0.0315 0.305462,0.0292 0.995142,-6e-5 1.990286,1.3e-4 2.985427,-1e-4 0.140898,-0.004 0.281675,-0.0302 0.414342,-0.078 0.371354,-0.13963 0.664274,-0.476 0.740758,-0.86667 0.02122,-0.10037 0.03154,-0.20291 0.02915,-0.30548 0,-1.48625 0,-2.9725 0,-4.45875 1.508245,-6e-5 3.016491,1.3e-4 4.524736,-1e-4 0.140897,-0.004 0.281681,-0.0301 0.414335,-0.078 0.295225,-0.11026 0.54126,-0.34358 0.667502,-0.63228 0.06291,-0.143 0.09349,-0.2989 0.101827,-0.45441 0.0013,-0.19663 2.23e-4,-0.39328 5.85e-4,-0.58992 -6.4e-5,-0.82633 1.27e-4,-1.65266 -9.6e-5,-2.47899 -0.0044,-0.14089 -0.03014,-0.28168 -0.07803,-0.41433 -0.110245,-0.29524 -0.343583,-0.54126 -0.632288,-0.66751 -0.142994,-0.0629 -0.298891,-0.0935 -0.454406,-0.10182 -0.196624,-0.001 -0.393277,-2.2e-4 -0.589912,-5.8e-4 -1.318085,0 -2.636169,0 -3.954254,0 -1.02e-4,-1.5112 2.04e-4,-3.02241 -1.53e-4,-4.53361 -0.0032,-0.27624 -0.07286,-0.55923 -0.237138,-0.78506 -0.08815,-0.12233 -0.209145,-0.21852 -0.341468,-0.28932 -0.149857,-0.0759 -0.319544,-0.10493 -0.486506,-0.101 -1.051813,0 -2.103625,0 -3.155438,0 z"
       inkscape:path-effect="#path-effect1635"
       inkscape:original-d="m 69.394946,187.63924 c -0.774097,0 -1.397331,0.62323 -1.397331,1.39733 v 4.31033 h -4.310332 c -0.774094,0 -1.397331,0.62324 -1.397331,1.39733 v 3.02307 c 0,0.7741 0.623237,1.39734 1.397331,1.39734 h 4.310332 v 4.31033 c 0,0.77409 0.623234,1.39733 1.397331,1.39733 h 3.023071 c 0.774094,0 1.397331,-0.62324 1.397331,-1.39733 v -4.31033 h 4.310848 c 0.774094,0 1.397331,-0.62324 1.397331,-1.39734 v -3.02307 c 0,-0.77409 -0.623237,-1.39733 -1.397331,-1.39733 h -4.310848 v -4.31033 c 0,-0.7741 -0.457872,-1.39733 -1.231966,-1.39733 z"
       sodipodi:nodetypes="sscsssscsssscsssscsss" />
    <path
       id="path5770"
       style="fill:#c5c6c4;fill-opacity:1;stroke:none;stroke-width:0.388885;stroke-linecap:square;stroke-linejoin:round;stroke-miterlimit:4;stroke-dasharray:none;paint-order:stroke fill markers"
       d="m 69.394531,188.13867 c -0.257097,-0.002 -0.511808,0.11423 -0.678844,0.30976 -0.144923,0.16594 -0.223339,0.38686 -0.21764,0.6069 0,1.59745 0,3.19489 0,4.79233 -1.608609,8e-5 -3.217219,-1.7e-4 -4.825827,1.3e-4 -0.261673,0.002 -0.518939,0.12639 -0.683192,0.33025 -0.133915,0.16261 -0.20544,0.37393 -0.199966,0.58432 1.1e-4,1.00755 -2.19e-4,2.0151 1.65e-4,3.02265 0.0031,0.24392 0.112002,0.48388 0.29358,0.64677 0.167791,0.15356 0.395747,0.23755 0.622917,0.23228 1.597441,0 3.194882,0 4.792323,0 4.9e-5,1.6074 -9.7e-5,3.2148 7.3e-5,4.8222 0.0015,0.24612 0.110081,0.48909 0.292949,0.65392 0.16719,0.15377 0.394776,0.23818 0.621686,0.23287 1.007546,-1.1e-4 2.015096,2.2e-4 3.022641,-1.6e-4 0.243919,-0.003 0.483884,-0.11201 0.646771,-0.29359 0.153555,-0.16779 0.237552,-0.39574 0.232286,-0.62291 0,-1.59745 0,-3.19489 0,-4.79233 1.608049,-5e-5 3.216099,1e-4 4.824147,-7e-5 0.243939,-0.001 0.484992,-0.1081 0.649237,-0.28864 0.155364,-0.16735 0.240564,-0.39613 0.235601,-0.62417 -1.09e-4,-1.00817 2.18e-4,-2.01633 -1.64e-4,-3.0245 -0.003,-0.24378 -0.11112,-0.48398 -0.292515,-0.64704 -0.167414,-0.15357 -0.395184,-0.23726 -0.62203,-0.23198 -1.598092,0 -3.196184,0 -4.794276,0 -7.6e-5,-1.60983 1.51e-4,-3.21966 -1.13e-4,-4.82948 -0.0027,-0.21073 -0.04757,-0.42854 -0.171646,-0.60284 -0.09869,-0.14122 -0.255582,-0.23908 -0.425773,-0.26578 -0.0945,-0.0164 -0.190631,-0.009 -0.286015,-0.0109 -1.012125,0 -2.02425,0 -3.036375,0 z"
       inkscape:path-effect="#path-effect5772"
       inkscape:original-d="m 69.394946,187.63924 c -0.774097,0 -1.397331,0.62323 -1.397331,1.39733 v 4.31033 h -4.310332 c -0.774094,0 -1.397331,0.62324 -1.397331,1.39733 v 3.02307 c 0,0.7741 0.623237,1.39734 1.397331,1.39734 h 4.310332 v 4.31033 c 0,0.77409 0.623234,1.39733 1.397331,1.39733 h 3.023071 c 0.774094,0 1.397331,-0.62324 1.397331,-1.39733 v -4.31033 h 4.310848 c 0.774094,0 1.397331,-0.62324 1.397331,-1.39734 v -3.02307 c 0,-0.77409 -0.623237,-1.39733 -1.397331,-1.39733 h -4.310848 v -4.31033 c 0,-0.7741 -0.457872,-1.39733 -1.231966,-1.39733 z"
       sodipodi:nodetypes="sscsssscsssscsssscsss" />
    <circle
       style="fill:#b2b2b1;fill-opacity:1;stroke:none;stroke-width:0.357785;stroke-linecap:square;stroke-linejoin:round;stroke-miterlimit:4;stroke-dasharray:none;paint-order:stroke fill markers"
       id="path5836"
       cx="70.906677"
       cy="196.25581"
       r="1.6235667" />
    <path
       sodipodi:type="star"
       style="opacity:1;fill:#b2b2b1;fill-opacity:1;stroke:none;stroke-width:1.32283;stroke-linecap:square;stroke-linejoin:round;stroke-miterlimit:4;stroke-dasharray:none;paint-order:stroke fill markers"
       id="path5940"
       inkscape:flatsided="true"
       sodipodi:sides="3"
       sodipodi:cx="240.76772"
       sodipodi:cy="670.34161"
       sodipodi:r1="6.2250857"
       sodipodi:r2="3.1125429"
       sodipodi:arg1="0.52359878"
       sodipodi:arg2="1.5707963"
       inkscape:rounded="0.02"
       inkscape:randomized="0"
       transform="matrix(0.35204394,0,0,0.35204394,-13.854134,-45.144754)"
       inkscape:transform-center-y="-0.54787912"
       d="m 246.1588,673.45416 c -0.10782,0.18675 -10.67435,0.18675 -10.78217,0 -0.10782,-0.18676 5.17544,-9.33763 5.39109,-9.33763 0.21564,0 5.4989,9.15087 5.39108,9.33763 z" />
    <path
       sodipodi:type="star"
       style="opacity:1;fill:#b2b2b1;fill-opacity:1;stroke:none;stroke-width:1.32283;stroke-linecap:square;stroke-linejoin:round;stroke-miterlimit:4;stroke-dasharray:none;paint-order:stroke fill markers"
       id="path6262"
       inkscape:flatsided="true"
       sodipodi:sides="3"
       sodipodi:cx="240.76772"
       sodipodi:cy="670.34161"
       sodipodi:r1="6.2250857"
       sodipodi:r2="3.1125429"
       sodipodi:arg1="0.52359878"
       sodipodi:arg2="1.5707963"
       inkscape:rounded="0.02"
       inkscape:randomized="0"
       transform="matrix(-0.17602197,0.304879,0.304879,0.17602197,-91.085997,10.251631)"
       inkscape:transform-center-y="0.51089924"
       inkscape:transform-center-x="0.021351901"
       d="m 246.1588,673.45416 c -0.10782,0.18675 -10.67435,0.18675 -10.78217,0 -0.10782,-0.18676 5.17544,-9.33763 5.39109,-9.33763 0.21564,0 5.4989,9.15087 5.39108,9.33763 z" />
    <path
       sodipodi:type="star"
       style="opacity:1;fill:#b2b2b1;fill-opacity:1;stroke:none;stroke-width:1.32283;stroke-linecap:square;stroke-linejoin:round;stroke-miterlimit:4;stroke-dasharray:none;paint-order:stroke fill markers"
       id="path6264"
       inkscape:flatsided="true"
       sodipodi:sides="3"
       sodipodi:cx="240.76772"
       sodipodi:cy="670.34161"
       sodipodi:r1="6.2250857"
       sodipodi:r2="3.1125429"
       sodipodi:arg1="0.52359878"
       sodipodi:arg2="1.5707963"
       inkscape:rounded="0.02"
       inkscape:randomized="0"
       transform="matrix(0.304879,-0.17602197,0.17602197,0.304879,-115.0973,34.263132)"
       inkscape:transform-center-y="-0.021352897"
       inkscape:transform-center-x="-0.5109051"
       d="m 246.1588,673.45416 c -0.10782,0.18675 -10.67435,0.18675 -10.78217,0 -0.10782,-0.18676 5.17544,-9.33763 5.39109,-9.33763 0.21564,0 5.4989,9.15087 5.39108,9.33763 z" />
    <path
       sodipodi:type="star"
       style="opacity:1;fill:#b2b2b1;fill-opacity:1;stroke:none;stroke-width:1.32283;stroke-linecap:square;stroke-linejoin:round;stroke-miterlimit:4;stroke-dasharray:none;paint-order:stroke fill markers"
       id="path6368"
       inkscape:flatsided="true"
       sodipodi:sides="3"
       sodipodi:cx="240.76772"
       sodipodi:cy="670.34161"
       sodipodi:r1="6.2250857"
       sodipodi:r2="3.1125429"
       sodipodi:arg1="0.52359878"
       sodipodi:arg2="1.5707963"
       inkscape:rounded="0.02"
       inkscape:randomized="0"
       transform="matrix(-0.304879,-0.17602197,-0.17602197,0.304879,256.91066,34.263132)"
       inkscape:transform-center-y="-0.021352897"
       inkscape:transform-center-x="0.51090163"
       d="m 246.1588,673.45416 c -0.10782,0.18675 -10.67435,0.18675 -10.78217,0 -0.10782,-0.18676 5.17544,-9.33763 5.39109,-9.33763 0.21564,0 5.4989,9.15087 5.39108,9.33763 z" />
  </g>
</svg>
